<?xml version="1.0" encoding="UTF-8" standalone="no"?>
<!-- Created with Inkscape (http://www.inkscape.org/) -->

<svg
   version="1.1"
   id="svg2"
   width="656.45331"
   height="448.35999"
   viewBox="0 0 656.45331 448.35999"
   sodipodi:docname="WRG_LOGO.eps"
   xmlns:inkscape="http://www.inkscape.org/namespaces/inkscape"
   xmlns:sodipodi="http://sodipodi.sourceforge.net/DTD/sodipodi-0.dtd"
   xmlns="http://www.w3.org/2000/svg"
   xmlns:svg="http://www.w3.org/2000/svg">
  <defs
     id="defs6">
    <clipPath
       clipPathUnits="userSpaceOnUse"
       id="clipPath40">
      <path
         d="M 4619.59,1745.41 H 344.801 V 3050.34 H 4619.59 Z"
         clip-rule="evenodd"
         id="path38" />
    </clipPath>
  </defs>
  <sodipodi:namedview
     id="namedview4"
     pagecolor="#ffffff"
     bordercolor="#000000"
     borderopacity="0.25"
     inkscape:showpageshadow="2"
     inkscape:pageopacity="0.0"
     inkscape:pagecheckerboard="0"
     inkscape:deskcolor="#d1d1d1" />
  <g
     id="g8"
     inkscape:groupmode="layer"
     inkscape:label="ink_ext_XXXXXX"
     transform="matrix(1.3333333,0,0,-1.3333333,0,448.36)">
    <g
       id="g10"
       transform="scale(0.1)">
      <path
         d="m 90,3118.36 c 0,85.28 69.121,154.38 154.395,154.38 H 4679 c 85.3,0 154.42,-69.1 154.42,-154.38 V 244.41 C 4833.42,159.141 4764.3,90 4679,90 H 244.395 C 159.121,90 90,159.141 90,244.41 Z"
         style="fill:none;stroke:#064d7a;stroke-width:90;stroke-linecap:butt;stroke-linejoin:miter;stroke-miterlimit:3.8637;stroke-dasharray:none;stroke-opacity:1"
         id="path12" />
      <path
         d="m 90,3118.36 c 0,85.28 69.121,154.38 154.395,154.38 H 4679 c 85.3,0 154.42,-69.1 154.42,-154.38 V 244.41 C 4833.42,159.141 4764.3,90 4679,90 H 244.395 C 159.121,90 90,159.141 90,244.41 Z"
         style="fill:none;stroke:#ffffff;stroke-width:180;stroke-linecap:butt;stroke-linejoin:miter;stroke-miterlimit:3.8637;stroke-dasharray:none;stroke-opacity:1"
         id="path14" />
      <path
         d="m 90,3118.36 c 0,85.28 69.121,154.38 154.395,154.38 H 4679 c 85.3,0 154.42,-69.1 154.42,-154.38 V 244.41 C 4833.42,159.141 4764.3,90 4679,90 H 244.395 C 159.121,90 90,159.141 90,244.41 Z"
         style="fill:none;stroke:#064d7a;stroke-width:90;stroke-linecap:butt;stroke-linejoin:miter;stroke-miterlimit:3.8637;stroke-dasharray:none;stroke-opacity:1"
         id="path16" />
      <path
         d="m 3699.09,840.141 52.34,148.527 c 51.37,145.762 145.31,180.142 282.83,180.142 h 229.67 c 173.25,0 175.23,-62.56 141.06,-159.53 l -5.58,-15.8 h -149.86 c 17.44,49.49 -8.56,55.7 -57.39,55.7 h -165.7 c -77.02,0 -103.47,-18.57 -133.51,-103.828 l -21.82,-61.872 c -30.09,-85.261 -16.68,-103.832 60.33,-103.832 h 162.92 c 39.91,0 81.99,6.192 98.91,54.321 l 5.13,14.449 H 4008.65 L 4045,951.52 h 342.38 L 4337.46,809.898 C 4287.07,666.898 4210.37,660.02 4038.5,660.02 h -183.56 c -137.56,0 -207.23,34.378 -155.85,180.121 z M 2868.24,665.512 3043.71,1163.3 h 236.5 l 159.24,-361.64 128.83,361.64 h 152.66 L 3545.47,665.512 H 3308.96 L 3149.73,1027.17 3020.86,665.512 Z m -264.04,0 175.48,497.788 h 152.61 L 2756.82,665.512 Z m -687.74,174.629 52.36,148.527 c 51.37,145.762 145.3,180.142 282.82,180.142 h 179.43 c 217.27,0 228.99,-46.76 177.93,-187.72 h -152.65 l 4.84,13.769 c 12.61,35.751 -9.88,46.061 -55.24,46.061 h -166.39 c -80.45,0 -108.92,-37.81 -130.73,-99.69 l -18.9,-53.628 c -25.44,-72.192 -20.01,-99.692 52.18,-99.692 h 162.95 c 68.75,0 91.8,6.879 113.61,68.75 h 152.66 l -16.49,-46.762 C 2525.29,726.02 2471.74,660.02 2318.42,660.02 h -246.13 c -137.52,0 -207.22,34.378 -155.83,180.121 z m -343.5,207.669 -162.17,-187.029 h 195.26 z m -503.27,-382.298 445,497.788 h 198.69 l 98.17,-497.788 h -169.81 l -16.45,88.008 h -309.37 l -75.72,-88.008 z m -664.092,0 175.476,497.788 h 460.656 c 117.56,0 128.58,-58.44 97.08,-147.83 l -11.14,-31.618 c -23.51,-66.704 -52.46,-105.864 -128.393,-122.383 41.963,-9.61 72.773,-29.571 43.923,-111.391 l -29.82,-84.566 H 860.742 l 21.094,59.816 c 18.418,52.25 9.355,69.461 -38.086,69.461 H 603.801 L 558.23,665.512 Z m 284.48,374.038 -42.656,-121.011 h 252.324 c 41.262,0 62.195,16.5 74.805,52.242 l 5.82,16.508 c 15.508,44.001 -3.586,52.261 -51.719,52.261 H 690.078"
         style="fill:#064d7a;fill-opacity:1;fill-rule:nonzero;stroke:none"
         id="path18" />
      <path
         d="m 4043.1,448.441 -23.06,-73.832 h 139.93 c 21.08,0 33.53,13.809 38.98,31.25 l 3.51,11.371 c 6.21,19.86 0.04,31.211 -27.19,31.211 z m -158.88,-220.652 91.6,293.68 h 245.37 c 85.59,0 92.85,-43.008 74.88,-100.61 l -7.83,-25.14 c -13.65,-43.809 -48.43,-94.098 -112.07,-94.098 h -178.9 l -22.99,-73.832 z m -398.04,104.672 58.92,189.008 h 90.06 l -52.9,-169.559 c -11.63,-37.301 -2.79,-51.93 34.13,-51.93 h 89.24 c 36.87,0 54.85,14.629 66.48,51.93 l 52.87,169.559 h 90.06 l -58.97,-189.008 c -22.73,-73.031 -71.36,-107.91 -154.12,-107.91 h -128.98 c -82.72,0 -109.57,34.879 -86.79,107.91 z m -346.95,57.988 -9.85,-31.64 c -13.29,-42.579 -9.42,-58.829 33.15,-58.829 h 115.18 c 42.6,0 56.59,16.25 69.87,58.829 l 9.85,31.64 c 11.39,36.5 9.45,58.813 -38.04,58.813 h -105.44 c -47.47,0 -63.33,-22.313 -74.72,-58.813 z m -111.07,-59.629 27.31,87.621 c 26.82,85.969 81.41,106.25 162.56,106.25 h 144.37 c 81.14,0 123.09,-20.281 96.23,-106.25 l -27.29,-87.621 c -26.82,-86 -81.42,-106.269 -162.55,-106.269 H 3124.4 c -81.13,0 -123.05,20.269 -96.24,106.269 z m -446.21,-103.031 91.55,293.68 h 271.79 c 69.35,0 77.27,-34.5 60.82,-87.231 l -5.85,-18.648 c -12.23,-39.36 -28.38,-62.461 -72.78,-72.192 25,-5.679 43.62,-17.437 28.59,-65.699 l -15.58,-49.91 h -90.02 l 10.99,35.281 c 9.61,30.84 3.83,40.989 -24.16,40.989 h -141.54 l -23.79,-76.27 z m 158.83,220.652 -22.24,-71.371 h 148.85 c 24.31,0 36.31,9.731 42.89,30.821 l 3.03,9.75 c 8.08,25.929 -3.35,30.8 -31.79,30.8 z m -563.9,-117.621 27.34,87.621 c 26.82,85.969 81.42,106.25 162.54,106.25 h 135.47 c 102.21,0 104.88,-36.921 87.07,-94.101 l -2.91,-9.32 h -88.44 c 9.12,29.199 -6.39,32.871 -35.18,32.871 h -97.75 c -45.41,0 -60.61,-10.981 -76.29,-61.27 l -11.39,-36.5 c -15.69,-50.281 -7.33,-61.23 38.11,-61.23 h 96.11 c 23.53,0 48.19,3.629 57.07,32.027 l 2.62,8.512 H 2359.3 l 18.98,60.84 h 202.01 l -26.05,-83.532 c -26.33,-84.379 -71.4,-88.437 -172.8,-88.437 h -108.3 c -81.11,0 -123.07,20.269 -96.26,106.269"
         style="fill:#064d7a;fill-opacity:1;fill-rule:nonzero;stroke:none"
         id="path20" />
      <path
         d="M 108.391,1245.86 H 2733.39"
         style="fill:#064d7a;fill-opacity:1;fill-rule:evenodd;stroke:none"
         id="path22" />
      <path
         d="M 108.391,1245.86 H 2733.39"
         style="fill:none;stroke:#064d7a;stroke-width:15.359;stroke-linecap:butt;stroke-linejoin:miter;stroke-miterlimit:3.8637;stroke-dasharray:none;stroke-opacity:1"
         id="path24" />
      <path
         d="M 355.891,592.5 H 4820.89"
         style="fill:#064d7a;fill-opacity:1;fill-rule:evenodd;stroke:none"
         id="path26" />
      <path
         d="M 355.891,592.5 H 4820.89"
         style="fill:none;stroke:#064d7a;stroke-width:15.359;stroke-linecap:butt;stroke-linejoin:miter;stroke-miterlimit:3.8637;stroke-dasharray:none;stroke-opacity:1"
         id="path28" />
      <path
         d="m 1988.28,1304.98 100.06,310.26 h 95.13 l -74.35,-230.53 h 213.84 l -25.73,-79.73 z m -444.32,0 100.03,310.26 h 287.12 c 73.28,0 81.24,-36.41 63.27,-92.13 l -6.33,-19.71 c -13.42,-41.56 -30.73,-66 -77.76,-76.27 26.36,-6 45.92,-18.44 29.48,-69.43 l -17,-52.72 h -95.14 l 12.04,37.29 c 10.5,32.57 4.51,43.28 -25.04,43.28 h -149.55 l -26.02,-80.57 z m 170.31,233.15 -24.34,-75.45 h 157.29 c 25.68,0 38.44,10.31 45.63,32.57 l 3.31,10.28 c 8.84,27.42 -3.19,32.6 -33.19,32.6 z m -500.54,-61.31 -10.78,-33.42 c -14.5,-44.98 -10.63,-62.13 34.36,-62.13 h 121.72 c 44.99,0 59.93,17.15 74.46,62.13 l 10.78,33.42 c 12.44,38.57 10.59,62.15 -39.52,62.15 h -111.42 c -50.15,0 -67.16,-23.58 -79.6,-62.15 z m -118.01,-62.99 29.85,92.56 c 29.27,90.86 87.18,112.27 172.89,112.27 h 152.56 c 85.72,0 129.77,-21.41 100.49,-112.27 l -29.84,-92.56 c -29.33,-90.84 -87.22,-112.27 -172.94,-112.27 H 1196.2 c -85.69,0 -129.79,21.43 -100.48,112.27 z m -528.396,-108.85 -0.652,310.26 h 92.984 l -7.515,-227.97 153.218,227.97 h 88.274 l 5.32,-227.97 140.397,227.97 h 92.95 L 931.555,1304.98 h -109.27 l -6.367,204.83 -139.324,-204.83 z m 1773.646,0 100.06,310.26 h 287.11 c 95.15,0 118.46,-31.27 93.7,-107.99 l -30.38,-94.28 c -24.74,-76.7 -68.24,-107.99 -163.39,-107.99 z m 170.3,233.15 -49.47,-153.42 h 168.85 c 40.72,0 60.3,11.54 74.52,55.68 l 13.56,41.99 c 14.22,44.16 2.11,55.75 -38.6,55.75 h -168.86"
         style="fill:#064d7a;fill-opacity:1;fill-rule:nonzero;stroke:none"
         id="path30" />
      <path
         d="M 4616.26,1745.41 H 341.469 V 3050.34 H 4616.26 V 1745.41"
         style="fill:#064d7a;fill-opacity:1;fill-rule:evenodd;stroke:none"
         id="path32" />
      <g
         id="g34">
        <g
           id="g36"
           clip-path="url(#clipPath40)">
          <path
             d="m 1762.69,1868.96 c 202.64,0.42 318.73,15.35 490.97,-29.37 63.33,-16.41 148.5,-55.39 200,-80 169.71,-79.59 434.56,-216.78 663.37,-124.47 61.64,24.62 128.34,74.67 205.18,83.28 59.96,-48.4 106.4,-98.86 144.39,-152.21 0.75,-0.99 1.62,-1.99 2.65,-2.93 h 1347.88 c -139.1,139.86 -205.98,251.74 -236.8,409.66 -18.57,95.59 4.83,224.89 -173.34,306.67 -44.63,20.48 -127.38,37.41 -220.98,67.72 -186.62,60.31 -112.32,209.24 -83.61,293.75 1.68,4.51 32.91,96.99 32.91,96.99 -42.21,-20.91 -117.34,-56.79 -168.01,-74.84 -70.06,-11.49 -154.51,-0.82 -215.3,18.45 -230.52,73.85 -347.88,208 -531.1,301.54 -130.88,66.87 -306.52,50.87 -477.06,35.69 -289.62,-25.84 -505.79,80.82 -777.66,91.08 -98.8,4.1 -190.83,-13.95 -287.93,-22.97 -24.34,-2.36 -671.91,-3.66 -697.937,-5.61 L 1602.5,1844.97 c 0,0 71.73,23.75 160.19,23.99"
             style="fill:#064d7a;fill-opacity:1;fill-rule:evenodd;stroke:none"
             id="path42" />
          <path
             d="m 1762.69,1868.96 c 202.64,0.42 318.73,15.35 490.97,-29.37 63.33,-16.41 148.5,-55.39 200,-80 169.71,-79.59 434.56,-216.78 663.37,-124.47 61.64,24.62 128.34,74.67 205.18,83.28 59.96,-48.4 106.4,-98.86 144.39,-152.21 0.75,-0.99 1.62,-1.99 2.65,-2.93 h 1347.88 c -139.1,139.86 -205.98,251.74 -236.8,409.66 -18.57,95.59 4.83,224.89 -173.34,306.67 -44.63,20.48 -127.38,37.41 -220.98,67.72 -186.62,60.31 -112.32,209.24 -83.61,293.75 1.68,4.51 32.91,96.99 32.91,96.99 -42.21,-20.91 -117.34,-56.79 -168.01,-74.84 -70.06,-11.49 -154.51,-0.82 -215.3,18.45 -230.52,73.85 -347.88,208 -531.1,301.54 -130.88,66.87 -306.52,50.87 -477.06,35.69 -289.62,-25.84 -505.79,80.82 -777.66,91.08 -98.8,4.1 -190.83,-13.95 -287.93,-22.97 -24.34,-2.36 -671.91,-3.66 -697.937,-5.61 L 1602.5,1844.97 c 0,0 71.73,23.75 160.19,23.99 z"
             style="fill:none;stroke:#ffffff;stroke-width:40;stroke-linecap:butt;stroke-linejoin:miter;stroke-miterlimit:4;stroke-dasharray:none;stroke-opacity:1"
             id="path44" />
          <path
             d="m 2158.69,2737.05 c -81.7,0.39 -465.87,1.14 -556.19,17.9 l -212.19,301.44 c 48.47,2.95 309.59,13.06 359.71,18.71 4.22,0.83 26.18,3.29 31.24,2.46 62.49,-8.2 347.88,-302.77 377.43,-340.51 v 0"
             style="fill:#ffffff;fill-opacity:1;fill-rule:evenodd;stroke:none"
             id="path46" />
          <path
             d="m 2793.66,3032.91 c 9.28,0.82 70.91,-18.12 69.23,-26.73 v 0 c 29.55,-20.1 60.8,-42.27 92.87,-61.54 143.55,-82.05 331.84,-294.56 405.3,-398.75 -81.06,2.86 -179.01,25.01 -260.9,35.27 -276.96,36.51 -366.46,75.07 -469.49,205.13 -26.16,34.46 -42.2,74.24 -79.36,105.43 0,10.26 -62.47,62.36 -75.14,72.61 -37.16,32 -29.17,68.58 -75.84,75.26"
             style="fill:#ffffff;fill-opacity:1;fill-rule:evenodd;stroke:none"
             id="path48" />
          <path
             d="m 1602.5,2720.13 c 21.61,-17.1 38.66,-40.58 68.99,-76.2 46.44,-53.34 93.73,-106.67 142.71,-159.59 10.13,-10.25 38.84,-28.72 -4.23,-20.52 -67.12,13.36 -147.97,26.76 -219.66,32.57 l -195,250 207.19,-26.26 v 0"
             style="fill:#ffffff;fill-opacity:1;fill-rule:evenodd;stroke:none"
             id="path50" />
          <path
             d="m 3493.66,2792.91 c 12.67,-2.46 104.05,-41.72 113.33,-46.65 51.51,-23.8 110,-50.68 173.34,-66.67 40.53,-9.85 18.11,-61.1 17.27,-79.98 -0.84,-44.3 8.44,-95.58 35.46,-138.25 16.89,-25.43 -26.18,0.41 -38.85,5.75 -53.19,24.2 -74.29,60.31 -101.32,92.31 -54.04,66.87 -115.67,132.92 -173.1,198.97 l -26.13,34.52"
             style="fill:#ffffff;fill-opacity:1;fill-rule:evenodd;stroke:none"
             id="path52" />
          <path
             d="m 2768.31,2634.9 c 37.16,-25.44 231.36,-174.77 240.65,-196.93 2.53,-4.51 57.41,-55.78 31.24,-54.14 -173.95,11.89 -325.93,-3.28 -499.86,-8.61 -54.88,46.35 -97.94,103.79 -144.38,152.61 -58.27,63.17 -135.95,123.48 -188.29,187.07 -15.21,19.69 141,6.16 158.73,5.33 119.06,-4.1 188.29,-15.18 287.93,-46.77 22.8,-6.56 111.46,-26.66 113.98,-38.56 v 0"
             style="fill:#ffffff;fill-opacity:1;fill-rule:evenodd;stroke:none"
             id="path54" />
          <path
             d="m 3974.91,2175.01 c -91.2,12.31 -169.71,28.32 -265.12,35.28 -33.78,2.88 -69.24,5.33 -102.17,10.26 -21.12,3.69 -128.35,10.67 -103.87,30.76 -10.12,39.8 -35.45,80.41 -48.97,120.21 -16.89,52.92 -41.38,104.2 -65.01,156.31 2.52,2.05 64.18,-4.1 71.77,-5.33 84.45,-9.45 172.25,-20.93 248.25,-41.03 37.98,-9.84 38.83,-14.36 54.04,-33.64 74.3,-89.85 146.9,-180.92 211.08,-272.82 v 0"
             style="fill:#ffffff;fill-opacity:1;fill-rule:evenodd;stroke:none"
             id="path56" />
          <path
             d="m 1575.31,2481.39 c 1.17,-1.66 -0.9,1.13 0,0 54.05,-63.18 145.15,-183.71 201.73,-246.48 16.89,-18.05 10.98,-19.29 -28.71,-21.74 -31.44,-1.91 -140.97,-96.7 -308.02,-46.78 l -120,250 255,65 v 0"
             style="fill:#ffffff;fill-opacity:1;fill-rule:evenodd;stroke:none"
             id="path58" />
          <path
             d="m 2830.8,2072.04 c -21.95,-5.34 -265.97,0.82 -303.12,3.69 -102.17,8.61 -335.22,32.83 -378.28,86.97 -16.88,22.56 -43.06,45.14 -65.02,66.47 -58.25,58.66 -112.3,118.14 -172.25,176.4 -20.26,20.1 -55.72,38.97 10.14,25.84 186.6,-35.69 354.63,-68.5 559.81,-68.5 63.32,0 74.3,-28.31 98.79,-52.51 82.74,-79.18 176.46,-157.13 249.93,-238.36 v 0"
             style="fill:#ffffff;fill-opacity:1;fill-rule:evenodd;stroke:none"
             id="path60" />
          <path
             d="m 4018.82,2348.95 c 47.27,-11.89 97.1,-7.79 146.08,-18.87 226.28,-50.05 332.66,-43.48 380.8,-179.68 3.37,-9.03 33.78,-79.59 1.68,-83.29 l -36.3,-3.69 c -56.57,-5.74 -196.74,-5.74 -244.02,12.31 -14.35,5.74 -127.5,176.41 -222.9,225.63 -6.78,4.1 -155.37,95.19 -85.29,66.88 19.42,-7.39 38.84,-13.54 59.95,-19.29 v 0"
             style="fill:#ffffff;fill-opacity:1;fill-rule:evenodd;stroke:none"
             id="path62" />
          <path
             d="m 3652.36,1927.22 c -273.57,27.9 -243.18,32.41 -363.91,153.43 -47.3,48.42 -83.6,98.46 -117.38,149.34 -1.68,4.1 -38.83,50.04 -16.88,44.71 79.37,-18.87 148.61,-34.86 235.58,-43.07 l 56.57,-4.52 c 38.85,-2.46 52.35,-2.05 62.48,-21.73 18.57,-33.66 40.54,-66.88 54.04,-101.75 24.48,-57.85 75.15,-118.57 89.5,-176.41 v 0"
             style="fill:#ffffff;fill-opacity:1;fill-rule:evenodd;stroke:none"
             id="path64" />
          <path
             d="m 2219.48,2071.63 c 25.34,-41.44 428.09,-372.09 491.42,-409.43 18.58,-10.67 12.66,-11.08 -10.13,-4.92 -67.56,18.46 -132.57,45.13 -189.98,70.56 -84.44,38.57 -151.98,86.97 -275.27,109.94 -92.03,29.54 -341.12,293.75 -396.84,355.69 -43.91,49.64 299.75,-61.53 312.41,-64.81 17.73,-4.11 75.99,-48.42 68.39,-57.03 v 0"
             style="fill:#ffffff;fill-opacity:1;fill-rule:evenodd;stroke:none"
             id="path66" />
          <path
             d="m 4018.82,2150.4 c 20.26,-0.82 40.52,-4.93 58.25,-9.85 177.32,-45.95 251.62,-145.64 310.74,-232.61 15.19,-21.74 74.3,-114.46 96.24,-131.68 15.21,-10.68 -37.14,8.61 -37.99,8.61 -45.59,15.17 -97.1,27.48 -142.7,43.07 -23.63,8.61 -76,84.1 -86.97,98.87 -29.54,42.26 -195.88,206.35 -197.57,223.59 v 0"
             style="fill:#ffffff;fill-opacity:1;fill-rule:evenodd;stroke:none"
             id="path68" />
          <path
             d="m 3643.07,1760.25 c -34.62,2.05 -55.73,10.26 -93.71,7.79 -78.53,-4.51 -151.15,-13.12 -223.76,-30.35 -41.38,-9.85 -44.76,0.81 -70.93,17.23 -70.92,47.18 -346.19,260.51 -383.34,307.68 75.99,6.98 299.74,27.07 363.07,12.31 44.76,-9.85 52.36,-19.28 72.62,-40.2 93.72,-94.77 233.9,-180.92 336.05,-274.46 v 0"
             style="fill:#ffffff;fill-opacity:1;fill-rule:evenodd;stroke:none"
             id="path70" />
          <path
             d="m 3695.43,1904.24 c 23.63,5.34 161.27,-10.66 196.74,-13.12 61.64,-4.1 348.72,-51.28 383.34,-70.98 10.12,-4.92 101.32,-99.28 121.58,-117.73 54.18,-47.56 115.55,-93.44 177.55,-139.15 h -458.9 c -127.32,63.96 -333.71,228.21 -374.72,280.68 l -45.59,60.3 v 0"
             style="fill:#ffffff;fill-opacity:1;fill-rule:evenodd;stroke:none"
             id="path72" />
          <path
             d="m 1165.31,2726.39 215,20 -200,325 -199.997,10 184.997,-355"
             style="fill:#ffffff;fill-opacity:1;fill-rule:evenodd;stroke:none"
             id="path74" />
          <path
             d="m 895.313,3061.39 619.997,-1340 h 100 l -679.997,1360 -40,-20"
             style="fill:#ffffff;fill-opacity:1;fill-rule:evenodd;stroke:none"
             id="path76" />
        </g>
      </g>
      <path
         d="M 921.977,3048.05 1535.31,1734.72"
         style="fill:none;stroke:#064d7a;stroke-width:10;stroke-linecap:butt;stroke-linejoin:miter;stroke-miterlimit:4;stroke-dasharray:none;stroke-opacity:1"
         id="path78" />
    </g>
  </g>
</svg>
